<svg width="128" height="128" viewBox="0 0 128 128" fill="none" xmlns="http://www.w3.org/2000/svg">
    <rect width="128" height="128" fill="#151515"/>
    <path d="M70.5605 99.8047C76.5493 97.2316 80.4424 91.9903 82.7541 86.9371C86.3685 79.0363 99.1346 75.7697 102.306 73.5185C106.709 70.3945 102.665 64.0709 96.1186 65.1165C89.0648 66.2443 87.3623 69.3143 83.1106 71.1744C80.9415 72.1207 79.4097 71.8161 79.1202 67.8128C78.9085 64.8767 82.6979 41.8074 83.8516 31.1716C84.247 27.5312 82.7303 25.4572 79.8007 25.0661C76.4823 24.6232 74.7647 26.4294 74.0626 29.7543C72.3126 38.0331 69.5386 54.2624 68.3741 55.1785C62.1175 59.104 53.776 64.2394 46.3203 54.2646C46.3203 54.2646 42.7534 35.5529 42.1981 31.7765C41.2367 25.239 32.4091 26.4186 33.1329 33.2348C33.8113 39.6556 35.9177 54.8069 34.0727 60.1885C32.4524 64.9178 29.5919 81.1492 35.894 91.0333C42.1117 100.786 58.7083 104.897 70.5605 99.8047Z" fill="#FFDC5D"/>
    <path d="M48.2733 73.5465C50.1421 82.5254 60.9897 81.5164 60.3049 72.9632C59.7496 66.0066 57.6367 53.8519 56.9497 50.8143C55.5497 44.5987 44.7237 45.9792 45.6095 53.3183C46.1842 58.0821 46.8193 66.5575 48.2733 73.5465V73.5465Z" fill="#EF9645"/>
    <path d="M50.2695 72.6327C51.9871 80.0841 59.8382 78.0122 59.4385 71.0469C59.0388 64.0795 57.4271 53.463 56.9345 50.3865C55.7809 43.2009 46.5514 46.4351 47.3011 51.7282C48.0508 57.0213 48.9884 67.076 50.2695 72.6327V72.6327Z" fill="#FFDC5D"/>
    <path d="M56.6904 75.504C56.8395 86.1831 68.7479 85.6019 69.6812 77.6083C70.4914 70.6775 68.776 55.3988 68.6485 52.2835C68.4087 46.487 57.8139 46.4459 57.466 53.0288C57.1852 58.3695 56.6105 69.8026 56.6904 75.504V75.504Z" fill="#EF9645"/>
    <path d="M58.7148 75.8194C58.4102 82.4606 67.3868 83.2124 68.0371 76.2666C68.6896 69.3208 68.534 54.4698 68.4822 51.3566C68.3936 45.9382 59.3348 46.1305 59.0799 52.7847C58.8768 58.1253 58.974 70.1223 58.7148 75.8194V75.8194Z" fill="#FFDC5D"/>
</svg>
